<?xml version="1.0" encoding="utf-8"?>
<svg xmlns="http://www.w3.org/2000/svg" xml:space="preserve" id="Livello_1" x="0" y="0" version="1.1" viewBox="0 0 841.9 250.4">
  <style>
    .st1{fill:#b40007}.st2{fill:#fff}
  </style>
  <path d="M125.1 158.6 170.5 158.6 200.7 33 145.5 35.1 105.3 88.8 89 34.1 40.5 34.1 6.4 160.3 54.1 159.9 69.3 99.8 89 162.1 139.1 92.3z" class="st1"/>
  <path d="M161.2 192.4 206.6 192.4 236.8 66.7 181.6 68.9 141.4 122.6 125.1 67.9 76.6 67.9 42.5 194 90.2 193.7 105.4 133.6 131.5 128.1 175.2 126z" class="st1"/>
  <path d="M634.1 146.4h-11.6l7-24.4h11.6C662 122 652.7 146.4 634.1 146.4M698.1 129c0-17.5-9.3-40.7-30.3-40.7h-81.5L555 213.9h51.2l10.5-36.1 15.1 36.1h59.3l-26.8-50C678.3 160.4 698.1 147.6 698.1 129M497.9 160.4h-16.3l16.3-33.7V160.4zM551.5 213.9l-4.7-124.5h-79.1l-64 124.5h52.4l7-17.5h37.2v17.5H551.5zM353.7 213.9 399 213.9 427 89.4 376.9 89.4 337.4 144.1 319.9 89.4 269.9 89.4 240.8 213.9 286.2 213.9 299 156.9 319.9 217.4 365.3 159.2zM772.6 146.4h-12.8l8.1-24.4h10.5C799.3 122 790 146.4 772.6 146.4M805.2 88.2h-81.5l-31.4 125.7h51.2l11.6-36.1 14 36.1h59.3l-25.6-50c12.8-3.5 32.6-16.3 32.6-34.9C836.6 111.5 826.1 88.2 805.2 88.2M146 179.6 191.4 179.6 220.5 55.1 200.7 33 170.5 158.6 125.1 158.6 139.1 92.3 89 162.1 93.7 166.8 86.7 192.4 42.5 192.4 62.3 214.5 111.1 214.5 125.1 159.8z" class="st2"/>
  <path d="M182.1 213.3h44.2l29.1-124.5-18.6-22.1-30.3 125.7h-47.7C158.9 192.4 181 213.3 182.1 213.3M105.3 88.8 89 34.1 121.6 66.7zM29.7 180.9h44.2l9.3-38.4L68.1 95.9l-14 64H6.4C6.4 159.9 28.5 180.9 29.7 180.9" class="st2"/>
  <path d="M23.4 146.4c0 .2.1.4.1.6 0 .2 0 .3 0 .4 0 .1 0 .3 0 .6 0 .5 0 .9-.1 1.4-.1.5-.1.9-.3 1.4-.3 1-.7 1.9-1.3 2.8-.6.9-1.5 1.5-2.5 2-1 .5-2.1.8-3.4.7-.8 0-1.6-.1-2.3-.4-.7-.3-1.2-.7-1.6-1.2-.3-.5-.5-.9-.5-1.4-.1-.5-.1-.9-.1-1.4 0-.4.1-.9.3-1.5.2-.9.5-1.6.8-2.2.3-.6.7-1.2 1.1-1.9l2.6 0c-.4.4-.8.9-1.1 1.4-.3.5-.6 1.1-.8 1.9-.2.9-.2 1.6 0 2.1.2.5.6.9 1 1.1.5.2.9.3 1.4.3.6 0 1.1-.1 1.7-.3.5-.2 1-.6 1.4-1.1.4-.5.7-1 .9-1.7.1-.4.2-.8.2-1.2l-1.3 0-.4 1.3-2.2 0 1-4L23.4 146.4zM18.6 138.4c-.5 0-.9.1-1.2.4-.3.3-.5.8-.7 1.5l-.2.6 2.7 0 .2-.6c.2-.7.2-1.2.1-1.5C19.4 138.6 19.1 138.4 18.6 138.4M27.3 134.4l-.8 3.2-2.2.8c-.8.3-1.4.5-1.8.8-.4.2-.7.4-.8.7-.2.2-.3.5-.4.8l-.1.3 4.4 0-.8 3-11.2-.1 1.3-5.1c.2-.8.6-1.5 1.1-2 .5-.5 1.1-.9 1.7-1.1.6-.2 1.1-.3 1.6-.3.6 0 1 .1 1.4.3.3.2.6.4.7.6.1.2.2.5.3.7.3-.3.6-.6 1-.8.3-.2 1-.5 2-.8L27.3 134.4zM25.3 122.9c1 0 1.7.2 2.3.5s1 .7 1.3 1.3c.3.5.4 1.1.4 1.7 0 .6-.1 1.2-.2 1.8-.2.8-.6 1.7-1.1 2.5-.5.8-1.2 1.5-2.2 2-.9.5-2 .8-3.2.8l-6.2-.1.8-3 5.3 0c.7 0 1.4-.1 1.9-.3.5-.2.9-.4 1.3-.8.3-.3.5-.7.6-1.2.1-.4.1-.8 0-1.2-.1-.3-.4-.6-.8-.8-.4-.2-1-.3-1.7-.3l-5.3 0 .8-3L25.3 122.9zM24.7 114.9c-.5 0-.9.1-1.2.4s-.5.8-.7 1.5l-.2.6 2.7 0 .2-.6c.1-.5.2-.9.2-1.1 0-.3-.1-.5-.2-.6C25.3 115 25.1 114.9 24.7 114.9M25.5 111.9c.4 0 .8.1 1.2.2.4.1.7.3.9.6.3.3.4.7.5 1.1.1.5 0 1-.1 1.7l-.5 2 4.2 0-.8 3-11.2-.1 1.3-5c.2-.7.4-1.2.8-1.7.3-.5.7-.9 1.1-1.1.4-.3.8-.5 1.3-.6C24.6 112 25.1 111.9 25.5 111.9M27.4 104.7c-.5 0-.9.1-1.2.4-.3.3-.5.8-.7 1.5l-.2.6 2.7 0 .2-.6c.1-.5.2-.9.2-1.1 0-.3-.1-.5-.2-.6C28 104.8 27.7 104.7 27.4 104.7M28.2 101.6c.4 0 .8.1 1.2.2.4.1.7.3.9.6.3.3.4.7.5 1.1.1.5 0 1-.1 1.7l-.5 2 4.2 0-.8 3-11.2-.1 1.3-5c.2-.7.4-1.2.8-1.7.3-.5.7-.9 1.1-1.1.4-.3.8-.5 1.3-.6C27.3 101.7 27.7 101.6 28.2 101.6M32.6 92.4c-.4 0-.8 0-1.2.2-.4.1-.7.3-1 .5-.3.2-.6.5-.8.8-.2.3-.4.7-.5 1.1-.2.8-.1 1.4.3 1.9.4.5 1 .7 1.9.7.9 0 1.6-.2 2.3-.7.6-.5 1.1-1.1 1.3-1.9.1-.5.1-1 0-1.4-.1-.4-.4-.7-.8-.9C33.7 92.5 33.2 92.4 32.6 92.4M33.4 89.4c1 0 1.9.2 2.7.7.8.4 1.3 1.1 1.6 1.9.3.8.3 1.9 0 3.1-.3 1.2-.9 2.3-1.6 3.1-.8.8-1.6 1.5-2.6 1.9-1 .4-2 .6-3 .6-1 0-1.9-.2-2.7-.6-.8-.4-1.3-1.1-1.6-1.9-.3-.9-.3-1.9 0-3.1.2-.9.6-1.7 1.1-2.5.5-.7 1.1-1.3 1.7-1.8.6-.5 1.3-.8 2.1-1C31.9 89.5 32.7 89.4 33.4 89.4M43.6 71.6 42.9 74.6 36.4 74.6 39.4 77.3 39.4 77.6 34.9 80.2 41.4 80.3 40.6 83.2 29.5 83.1 30.2 80.4 35.2 77.4 31.8 74.3 32.5 71.6zM41.7 62.8l-4.4 1.4 3.7 1.5L41.7 62.8zM47.1 58.2l-.8 3.1-2.5.8-1.1 4.3 2 .8L44 70.3l-10-4.5.9-3.3L47.1 58.2zM41.3 51.3c-.5 0-.9.1-1.2.4-.3.3-.5.8-.7 1.5l-.2.6 2.7 0 .2-.6c.2-.7.2-1.2.1-1.5C42.1 51.4 41.8 51.3 41.3 51.3M50 47.3l-.8 3.2L47 51.3c-.8.3-1.4.5-1.8.8-.4.2-.7.4-.8.7s-.3.5-.4.8l-.1.3 4.4 0-.8 3-11.2-.1 1.3-5.1c.2-.8.6-1.5 1.1-2 .5-.5 1.1-.9 1.7-1.1.6-.2 1.1-.3 1.6-.3.6 0 1 .1 1.4.3.3.2.6.4.7.6.1.2.2.5.3.7.3-.3.6-.6 1-.8.3-.2 1-.5 2-.8L50 47.3zM44.1 40.3c-.5 0-.9.1-1.2.4-.3.3-.5.8-.7 1.5l-.2.6 2.7 0 .2-.6c.2-.7.2-1.2.1-1.5C45 40.5 44.7 40.3 44.1 40.3M52.8 36.3 52 39.5l-2.2.8c-.8.3-1.4.5-1.8.8-.4.2-.7.4-.8.7-.2.2-.3.5-.4.8l-.1.3 4.4 0-.8 3-11.2-.1 1.3-5.1c.2-.8.6-1.5 1.1-2 .5-.5 1.1-.9 1.7-1.1.6-.2 1.1-.3 1.6-.3.6 0 1 .1 1.4.3.3.2.6.4.7.6.1.2.2.5.3.7.3-.3.6-.6 1-.8.3-.2 1-.5 2-.8L52.8 36.3z" class="st2"/>
</svg>