<svg width="247" height="55" viewBox="0 0 247 55" xmlns="http://www.w3.org/2000/svg" xmlns:xlink="http://www.w3.org/1999/xlink">
    <defs>
        <path id="1lwkxwijfa" d="M0 0h42.667v37.475H0z"/>
        <path id="0y43beizac" d="M0 0h53.038v54.129H0z"/>
    </defs>
    <g fill="none" fill-rule="evenodd">
        <path fill="#FEFEFE" d="M58 0 41.508.656l-11.983 16.21L24.662.35H10.194L0 38.45l14.237-.107 4.543-18.157L24.662 39l14.933-21.082-4.169 20.03h13.545z"/>
        <path fill="#FEFEFE" d="M46.426 46.505h13.545L69 9l-16.492.648-11.984 16.02-4.863-16.32H21.193L11 47l14.237-.105L29.78 28.95l7.795-1.631 13.02-.61z"/>
        <path d="M206.067 28.628c0-5.205-2.774-12.145-9.014-12.145h-24.267l-9.36 37.475h15.254L181.8 43.2l4.505 10.757h17.681l-7.971-14.92c4.159-1.042 10.052-4.858 10.052-10.41M187 33.834h-3.466l2.078-7.287h3.467c6.24 0 3.469 7.287-2.079 7.287M162.387 53.957 161 16.831h-23.574L118.36 53.957h15.6l2.081-5.204h11.092v5.204h15.254zm-15.947-15.96h-4.852l4.852-10.063v10.062zM103.455 53.96h13.518l8.32-37.128h-14.905L98.6 33.14l-5.2-16.31H78.495L69.828 53.96h13.519l3.813-17.002L93.4 55l13.52-17.349z" fill="#DB0D15"/>
        <g transform="translate(204.333 16.483)">
            <mask id="b6t8n5vkcb" fill="#fff">
                <use xlink:href="#1lwkxwijfa"/>
            </mask>
            <path d="M33.628 0H9.36L0 37.475h15.254l3.467-10.758 4.159 10.758h17.68l-7.628-14.92c3.816-1.042 9.71-4.858 9.71-10.41C42.986 6.94 39.867 0 33.627 0M23.92 17.35h-3.815l2.427-7.287h3.12c6.24 0 3.466 7.287-1.732 7.287" fill="#DB0D15" mask="url(#b6t8n5vkcb)"/>
        </g>
        <g transform="translate(10.754)">
            <mask id="sjmdemqyrd" fill="#fff">
                <use xlink:href="#0y43beizac"/>
            </mask>
            <path fill="#DB0D15" mask="url(#sjmdemqyrd)" d="M30.851 43.72h13.52l8.667-37.13L47.146 0l-9.014 37.474h-13.52l4.16-19.78-14.907 20.82 1.386 1.39-2.078 7.632H0l5.89 6.593h14.56L24.61 37.82z"/>
        </g>
        <path d="M52.353 53.78h13.172l8.668-37.127-5.547-6.593-9.014 37.474H45.42s6.586 6.246 6.933 6.246M29.473 16.655 24.62.347l9.705 9.715zM6.933 44.109h13.173l2.772-11.45-4.507-13.88-4.159 19.084H0s6.585 6.246 6.933 6.246" fill="#DB0D15"/>
        <path d="M5.06 33.816c.01.064.02.12.025.166a3.96 3.96 0 0 1 .022.314 3.359 3.359 0 0 1-.109.832c-.078.3-.212.578-.401.832-.19.254-.434.456-.733.607a2.168 2.168 0 0 1-1.014.221 1.954 1.954 0 0 1-.684-.124.895.895 0 0 1-.468-.367 1.2 1.2 0 0 1-.16-.41 1.361 1.361 0 0 1-.02-.403c.013-.131.04-.275.082-.434a3.1 3.1 0 0 1 .234-.644 8.4 8.4 0 0 1 .319-.556l.786.007a3.238 3.238 0 0 0-.332.422c-.097.15-.176.335-.234.56-.067.257-.066.464.004.62a.61.61 0 0 0 .308.325c.136.062.275.093.416.094a1.175 1.175 0 0 0 .915-.414c.122-.14.208-.31.26-.509.03-.114.045-.236.045-.364l-.391-.003-.105.401-.668-.005.308-1.182 1.595.014zM6.224 30.249l-.25.959-.65.228c-.237.083-.416.16-.533.227a.76.76 0 0 0-.244.197.797.797 0 0 0-.107.251l-.027.1 1.298.012-.233.893-3.322-.028.396-1.52a1.31 1.31 0 0 1 .324-.6 1.405 1.405 0 0 1 .978-.436.817.817 0 0 1 .403.091c.1.059.17.12.205.185.036.064.068.136.095.217.087-.096.181-.173.283-.235.102-.06.297-.144.585-.248l.8-.293zm-2.588 1.194c-.154-.001-.272.043-.356.132-.084.09-.153.235-.205.437l-.048.188.8.007.05-.192c.056-.219.07-.368.036-.449-.033-.08-.125-.122-.277-.123zM5.628 26.807c.285.003.515.052.69.149a.864.864 0 0 1 .379.38c.076.156.115.325.12.506.005.18-.017.36-.063.54a2.411 2.411 0 0 1-.336.73 1.852 1.852 0 0 1-1.604.822L2.98 29.92l.232-.89 1.575.013c.219.002.407-.024.565-.08a.895.895 0 0 0 .375-.233.823.823 0 0 0 .192-.354.56.56 0 0 0-.007-.349.445.445 0 0 0-.251-.239 1.32 1.32 0 0 0-.52-.089l-1.58-.013.234-.893 1.833.015zM5.69 23.536c.122.001.238.021.345.06a.65.65 0 0 1 .439.528c.026.144.014.312-.037.506l-.152.585 1.246.01-.231.894-3.323-.028.384-1.478c.05-.194.127-.362.228-.505.101-.143.214-.255.337-.339a1.35 1.35 0 0 1 .763-.233m-.232.91c-.158-.001-.277.04-.357.122-.08.083-.149.232-.204.447l-.05.188.801.007.05-.192c.039-.149.059-.263.059-.343 0-.08-.024-.137-.07-.173-.048-.036-.123-.055-.229-.055M6.485 20.477c.123.001.238.02.346.059a.657.657 0 0 1 .439.529c.026.143.014.312-.037.506l-.152.585 1.247.01-.233.893-3.322-.027.384-1.478c.051-.194.127-.363.228-.506a1.324 1.324 0 0 1 1.1-.57m-.231.908c-.159 0-.278.04-.358.123-.08.083-.148.232-.204.447l-.049.188.8.007.05-.192c.039-.149.059-.263.059-.343 0-.08-.023-.138-.07-.173-.047-.037-.123-.056-.228-.057M8.052 16.818c.31.003.579.069.806.198.227.13.385.321.473.575.088.253.085.56-.01.922a2.182 2.182 0 0 1-.482.928c-.225.252-.484.439-.777.56-.293.12-.587.18-.884.177a1.648 1.648 0 0 1-.79-.19 1.025 1.025 0 0 1-.481-.57c-.093-.257-.092-.567.003-.933a2.31 2.31 0 0 1 .328-.731 2.09 2.09 0 0 1 1.133-.835c.225-.07.453-.103.681-.101m-.237.91c-.124 0-.242.014-.353.047a.99.99 0 0 0-.699.717c-.062.24-.032.429.09.567.12.137.308.207.561.21.255.002.478-.066.672-.201a.962.962 0 0 0 .382-.562.691.691 0 0 0 0-.419.486.486 0 0 0-.234-.266.9.9 0 0 0-.419-.093M11.094 11.533l-.232.893-1.925-.015.905.814-.019.071-1.324.798 1.925.016-.226.868-3.322-.028.21-.81 1.484-.9-1.009-.925.211-.81zM12.135 7.534l-.238.915-.737.236-.334 1.286.61.25-.238.915L8.216 9.8l.256-.987 3.663-1.278zm-1.606 1.35-1.325.424 1.098.449.227-.873zM12.983 4.274l-.25.96-.65.228a3.45 3.45 0 0 0-.533.226.749.749 0 0 0-.244.199.783.783 0 0 0-.107.25l-.027.1 1.297.011-.232.893-3.323-.027.396-1.519a1.31 1.31 0 0 1 .325-.602 1.402 1.402 0 0 1 .978-.434c.168 0 .302.031.403.09.1.058.169.12.204.184.037.065.068.137.095.218.088-.096.183-.174.284-.235.101-.061.296-.144.585-.248l.799-.294zm-2.588 1.194c-.153 0-.272.044-.357.133-.083.09-.151.235-.204.437l-.049.188.8.007.05-.193c.057-.218.07-.367.037-.448-.033-.08-.125-.122-.277-.124zM13.835 1.001l-.25.96-.65.227c-.238.084-.416.16-.533.227a.749.749 0 0 0-.244.199.783.783 0 0 0-.108.25l-.026.1 1.297.011-.232.893-3.323-.027.395-1.519c.064-.245.173-.446.325-.602.153-.155.318-.267.496-.335.177-.067.339-.1.483-.099.168 0 .302.031.402.09.1.058.17.12.205.184.036.065.068.137.095.218.087-.096.182-.174.284-.235.101-.061.296-.144.584-.248l.8-.294zm-2.589 1.195c-.153-.002-.271.042-.356.132-.083.09-.152.235-.205.437l-.048.188.8.007.05-.193c.057-.218.069-.367.036-.448-.033-.08-.124-.122-.277-.123z" fill="#DB0D15"/>
    </g>
</svg>
